REM DIRINDEX 1\3,1\4,1\5,1\6,1\2\7,1\2\8,1\2\9,1\2\10,1\2\11
REM DIRNAME folder01,folder02,folder03,folder04,folder05,folder06,folder07,folder08,folder09,folder10,folder11
TITLE ""
FILE "DISC5Track16.mp3" MP3
  TRACK 01 AUDIO
    TITLE "0:"
    INDEX 01 00:00:00
  TRACK 02 AUDIO
    TITLE "3:cjc021_5232"
    INDEX 01 00:00:21
  TRACK 03 AUDIO
    TITLE "0:"
    INDEX 01 00:01:66
  TRACK 04 AUDIO
    TITLE "4:cjc021_5233"
    INDEX 01 00:03:41
  TRACK 05 AUDIO
    TITLE "0:"
    INDEX 01 00:05:10
  TRACK 06 AUDIO
    TITLE "5:cjc021_5234"
    INDEX 01 00:05:46
  TRACK 07 AUDIO
    TITLE "0:"
    INDEX 01 00:08:30
  TRACK 08 AUDIO
    TITLE "3:cjc021_5235"
    INDEX 01 00:09:67
  TRACK 09 AUDIO
    TITLE "0:"
    INDEX 01 00:11:15
  TRACK 10 AUDIO
    TITLE "4:cjc021_5236"
    INDEX 01 00:12:65
  TRACK 11 AUDIO
    TITLE "0:"
    INDEX 01 00:14:13
  TRACK 12 AUDIO
    TITLE "5:cjc021_5237"
    INDEX 01 00:14:49
  TRACK 13 AUDIO
    TITLE "0:"
    INDEX 01 00:17:67
  TRACK 14 AUDIO
    TITLE "3:cjc021_5238"
    INDEX 01 00:19:26
  TRACK 15 AUDIO
    TITLE "0:"
    INDEX 01 00:20:51
  TRACK 16 AUDIO
    TITLE "4:cjc021_5239"
    INDEX 01 00:22:25
  TRACK 17 AUDIO
    TITLE "0:"
    INDEX 01 00:23:51
  TRACK 18 AUDIO
    TITLE "5:cjc021_5240"
    INDEX 01 00:24:10
  TRACK 19 AUDIO
    TITLE "0:"
    INDEX 01 00:26:69
  TRACK 20 AUDIO
    TITLE "3:cjc021_5241"
    INDEX 01 00:28:31
  TRACK 21 AUDIO
    TITLE "0:"
    INDEX 01 00:29:34
  TRACK 22 AUDIO
    TITLE "4:cjc021_5242"
    INDEX 01 00:31:10
  TRACK 23 AUDIO
    TITLE "0:"
    INDEX 01 00:32:13
  TRACK 24 AUDIO
    TITLE "5:cjc021_5243"
    INDEX 01 00:32:48
  TRACK 25 AUDIO
    TITLE "0:"
    INDEX 01 00:34:63
  TRACK 26 AUDIO
    TITLE "3:cjc021_5244"
    INDEX 01 00:36:25
  TRACK 27 AUDIO
    TITLE "0:"
    INDEX 01 00:37:30
  TRACK 28 AUDIO
    TITLE "4:cjc021_5245"
    INDEX 01 00:39:05
  TRACK 29 AUDIO
    TITLE "0:"
    INDEX 01 00:40:09
  TRACK 30 AUDIO
    TITLE "5:cjc021_5246"
    INDEX 01 00:40:46
  TRACK 31 AUDIO
    TITLE "0:"
    INDEX 01 00:42:37
  TRACK 32 AUDIO
    TITLE "3:cjc021_5247"
    INDEX 01 00:43:74
  TRACK 33 AUDIO
    TITLE "0:"
    INDEX 01 00:45:00
  TRACK 34 AUDIO
    TITLE "4:cjc021_5248"
    INDEX 01 00:46:53
  TRACK 35 AUDIO
    TITLE "0:"
    INDEX 01 00:47:54
  TRACK 36 AUDIO
    TITLE "5:cjc021_5249"
    INDEX 01 00:48:16
  TRACK 37 AUDIO
    TITLE "0:"
    INDEX 01 00:51:09
  TRACK 38 AUDIO
    TITLE "3:cjc021_5250"
    INDEX 01 00:52:45
  TRACK 39 AUDIO
    TITLE "0:"
    INDEX 01 00:53:45
  TRACK 40 AUDIO
    TITLE "4:cjc021_5251"
    INDEX 01 00:55:22
  TRACK 41 AUDIO
    TITLE "0:"
    INDEX 01 00:56:22
  TRACK 42 AUDIO
    TITLE "5:cjc021_5252"
    INDEX 01 00:56:59
  TRACK 43 AUDIO
    TITLE "0:"
    INDEX 01 00:59:30
  TRACK 44 AUDIO
    TITLE "3:cjc021_5253"
    INDEX 01 01:00:68
  TRACK 45 AUDIO
    TITLE "0:"
    INDEX 01 01:01:60
  TRACK 46 AUDIO
    TITLE "4:cjc021_5254"
    INDEX 01 01:03:41
  TRACK 47 AUDIO
    TITLE "0:"
    INDEX 01 01:04:33
  TRACK 48 AUDIO
    TITLE "5:cjc021_5255"
    INDEX 01 01:04:72
  TRACK 49 AUDIO
    TITLE "0:"
    INDEX 01 01:07:57
  TRACK 50 AUDIO
    TITLE "3:cjc021_5256"
    INDEX 01 01:09:22
  TRACK 51 AUDIO
    TITLE "0:"
    INDEX 01 01:10:24
  TRACK 52 AUDIO
    TITLE "4:cjc021_5257"
    INDEX 01 01:12:01
  TRACK 53 AUDIO
    TITLE "0:"
    INDEX 01 01:13:00
  TRACK 54 AUDIO
    TITLE "5:cjc021_5258"
    INDEX 01 01:13:38
  TRACK 55 AUDIO
    TITLE "0:"
    INDEX 01 01:15:72
  TRACK 56 AUDIO
    TITLE "3:cjc021_5259"
    INDEX 01 01:17:33
  TRACK 57 AUDIO
    TITLE "0:"
    INDEX 01 01:18:27
  TRACK 58 AUDIO
    TITLE "4:cjc021_5260"
    INDEX 01 01:20:02
  TRACK 59 AUDIO
    TITLE "0:"
    INDEX 01 01:20:69
  TRACK 60 AUDIO
    TITLE "5:cjc021_5261"
    INDEX 01 01:21:31
  TRACK 61 AUDIO
    TITLE "0:"
    INDEX 01 01:24:34
